<svg id="FOOD" xmlns="http://www.w3.org/2000/svg" viewBox="0 0 480 480"><defs><style>.cls-1{fill:#efcd3d;}.cls-2{fill:#c4a834;}.cls-3{fill:#75533c;}.cls-4{fill:#bb8b66;}</style></defs><title>food</title><path class="cls-1" d="M494.46,257.38a240.75,240.75,0,0,1-2,31.15q-1.2,9.23-3.08,18.21A240,240,0,0,1,289.28,494.87a242.29,242.29,0,0,1-34.82,2.51q-9.32,0-18.47-.7c-123.92-9.43-221.53-113-221.53-239.3,0-132.54,107.45-240,240-240S494.46,124.84,494.46,257.38Z" transform="translate(-14.46 -17.38)"/><path class="cls-2" d="M489.37,306.74A240.34,240.34,0,0,1,366.62,469.61l-47.54-68.87V114.47Z" transform="translate(-14.46 -17.38)"/><path class="cls-2" d="M421.6,429.59a239.21,239.21,0,0,1-132.32,65.28L199,400.74V165.65Z" transform="translate(-14.46 -17.38)"/><path class="cls-3" d="M366.55,163.94c0,28.79-14.39,53.1-34.12,60.76V408.18a6,6,0,0,1-6,6H311.73a6,6,0,0,1-6-6V224.7c-19.74-7.66-34.13-32-34.13-60.76,0-35,21.25-63.37,47.48-63.37S366.55,128.93,366.55,163.94Z" transform="translate(-14.46 -17.38)"/><path class="cls-4" d="M327.71,109.39s37.6,16.52,21.16,79C348.87,188.36,376.23,131.58,327.71,109.39Z" transform="translate(-14.46 -17.38)"/><path class="cls-4" d="M284.87,165.65s3.1,22.71,17.55,37.68C302.42,203.33,279.71,189.91,284.87,165.65Z" transform="translate(-14.46 -17.38)"/><path class="cls-4" d="M332.43,355.84v52.34a6,6,0,0,1-6,6H311.73a6,6,0,0,1-6-6V355.84Z" transform="translate(-14.46 -17.38)"/><path class="cls-3" d="M238.66,117.3v91.92a16.74,16.74,0,0,1-16.72,16.72H208.46V408.18a6,6,0,0,1-6,6H187.77a6,6,0,0,1-6-6V225.94H168.28a16.74,16.74,0,0,1-16.65-15.09c0-.54-.08-1.08-.08-1.63V117.3a16.74,16.74,0,0,1,16.73-16.73h.44V168a8.3,8.3,0,0,0,3.8,7,8.41,8.41,0,0,0,4.44,1.35h.14a8.33,8.33,0,0,0,8.31-7.67c0-.22,0-.44,0-.67V100.57h23V168a8.2,8.2,0,0,0,1.6,4.89,8.32,8.32,0,0,0,6.78,3.45,8.34,8.34,0,0,0,8.32-7.63c0-.23,0-.47,0-.71V100.9a16.81,16.81,0,0,1,9.76,5.92A16.63,16.63,0,0,1,238.66,117.3Z" transform="translate(-14.46 -17.38)"/><path class="cls-4" d="M208.46,355.84v52.34a6,6,0,0,1-6,6H187.77a6,6,0,0,1-6-6V355.84Z" transform="translate(-14.46 -17.38)"/><path class="cls-4" d="M230.42,190.55l-22,29.81S235.65,222.68,230.42,190.55Z" transform="translate(-14.46 -17.38)"/><path class="cls-4" d="M165.39,106.3l-10.32,16.51S153,104.23,165.39,106.3Z" transform="translate(-14.46 -17.38)"/><path class="cls-4" d="M157.65,211.06s-.39,9.38,11.61,9.34C169.26,220.4,160.35,216.87,157.65,211.06Z" transform="translate(-14.46 -17.38)"/></svg>